<svg width="25" height="25" viewBox="0 0 25 25" fill="none" xmlns="http://www.w3.org/2000/svg">
<path d="M12.5 0C5.60708 0 0 5.60708 0 12.5C0 19.3929 5.60708 25 12.5 25C19.3929 25 25 19.3929 25 12.5C25 5.60708 19.3929 0 12.5 0ZM12.5 23.9583C6.18184 23.9583 1.04165 18.8182 1.04165 12.5C1.04165 6.18184 6.18184 1.04165 12.5 1.04165C18.8182 1.04165 23.9583 6.18184 23.9583 12.5C23.9583 18.8182 18.8182 23.9583 12.5 23.9583Z" fill="#474747"/>
<path d="M14.9516 6.40257C14.7481 6.1991 14.4185 6.1991 14.2151 6.40257L8.48594 12.1317C8.28247 12.3352 8.28247 12.6648 8.48594 12.8682L14.2151 18.5973C14.3168 18.6991 14.4501 18.7499 14.5833 18.7499C14.7166 18.7499 14.8499 18.6991 14.9516 18.5973C15.1551 18.3939 15.1551 18.0643 14.9516 17.8609L9.59067 12.5L14.9516 7.13904C15.155 6.93563 15.155 6.60604 14.9516 6.40257Z" fill="#474747"/>
</svg>
