<svg width="145" height="140" viewBox="0 0 145 140" fill="none" xmlns="http://www.w3.org/2000/svg">
<g clip-path="url(#clip0)">
<path d="M44.2206 131.28C44.2206 131.28 37.6697 120.918 27.7976 117.932C23.6547 116.679 21.8995 115.987 19.4264 112.766" stroke="#E6E6E6" stroke-width="2" stroke-miterlimit="10"/>
<path d="M22.0925 121.827C23.5735 121.369 26.9346 117.648 26.9346 117.648C26.9346 117.648 21.7124 116.582 20.2312 117.039C19.5431 117.274 18.9842 117.739 18.6726 118.335C18.3611 118.93 18.3212 119.611 18.5615 120.233C18.8018 120.854 19.3034 121.368 19.9604 121.666C20.6173 121.963 21.3781 122.021 22.0819 121.827L22.0925 121.827Z" fill="#E6E6E6"/>
<path d="M31.9903 127.069C33.536 126.842 37.5587 123.682 37.5587 123.682C37.5587 123.682 32.6126 121.843 31.0661 122.07C30.6984 122.125 30.3462 122.243 30.0297 122.419C29.7132 122.594 29.4386 122.824 29.2215 123.094C29.0044 123.365 28.8491 123.671 28.7644 123.995C28.6798 124.319 28.6674 124.654 28.7281 124.983C28.7888 125.311 28.9214 125.625 29.1182 125.908C29.315 126.19 29.5722 126.435 29.8751 126.629C30.178 126.823 30.5208 126.962 30.8837 127.037C31.2467 127.113 31.6228 127.124 31.9905 127.07L31.9903 127.069Z" fill="#E6E6E6"/>
<path d="M17.6497 109.199C18.9323 110.002 21.0293 114.405 21.0293 114.405C21.0293 114.405 15.6775 114.153 14.3936 113.351C14.0848 113.161 13.8212 112.919 13.618 112.638C13.4147 112.357 13.2758 112.043 13.2093 111.713C13.1429 111.384 13.1501 111.046 13.2306 110.72C13.3111 110.393 13.4633 110.083 13.6784 109.809C13.8935 109.535 14.1673 109.302 14.4839 109.123C14.8005 108.944 15.1538 108.823 15.5232 108.766C15.8926 108.71 16.2709 108.719 16.6363 108.794C17.0016 108.868 17.3468 109.007 17.6519 109.201L17.6497 109.199Z" fill="#E6E6E6"/>
<path d="M43.763 131.03C43.763 131.03 42.2086 116.665 32.9037 109.023C29 105.816 26.2883 101.622 25.321 96.9598C24.8655 94.75 24.6383 92.5075 24.6421 90.2606" stroke="#535461" stroke-width="2" stroke-miterlimit="10"/>
<path d="M18.8144 85.4141C19.5244 86.9883 24.7769 90.4036 24.7769 90.4036C24.7769 90.4036 25.9084 84.691 25.1984 83.1168C25.0315 82.7395 24.7827 82.3954 24.4663 82.1043C24.1499 81.8132 23.7721 81.5808 23.3546 81.4206C22.9372 81.2604 22.4883 81.1755 22.034 81.1708C21.5796 81.1661 21.1287 81.2417 20.7072 81.3932C20.2857 81.5447 19.902 81.7692 19.5781 82.0537C19.2541 82.3381 18.9965 82.677 18.8199 83.0507C18.6433 83.4245 18.5513 83.8257 18.5492 84.2313C18.5471 84.6369 18.6348 85.0389 18.8075 85.4141H18.8144Z" fill="#A55EEA"/>
<path d="M17.4713 96.0299C19.0257 97.0059 25.5152 97.3251 25.5152 97.3251C25.5152 97.3251 22.9882 91.981 21.4338 91.0035C21.0642 90.7696 20.6465 90.603 20.2047 90.5135C19.7629 90.424 19.3057 90.4132 18.8592 90.4817C18.4127 90.5503 17.9858 90.6968 17.6028 90.913C17.2199 91.1291 16.8886 91.4106 16.6278 91.7413C16.367 92.072 16.182 92.4454 16.0832 92.8401C15.9844 93.2348 15.9739 93.643 16.0523 94.0414C16.1306 94.4397 16.2963 94.8203 16.5397 95.1613C16.7832 95.5024 17.0997 95.7972 17.4711 96.0288L17.4713 96.0299Z" fill="#A55EEA"/>
<path d="M24.4298 110.844C26.3298 110.986 32.1058 108.337 32.1058 108.337C32.1058 108.337 26.9015 104.859 25.0068 104.721C24.551 104.678 24.0902 104.717 23.6513 104.835C23.2125 104.953 22.8045 105.148 22.4512 105.409C22.0979 105.669 21.8065 105.99 21.594 106.353C21.3816 106.715 21.2523 107.112 21.2139 107.52C21.1755 107.927 21.2287 108.338 21.3703 108.727C21.5119 109.116 21.7392 109.476 22.0387 109.786C22.3383 110.095 22.704 110.348 23.1146 110.53C23.5252 110.712 23.9723 110.819 24.4298 110.844Z" fill="#A55EEA"/>
<path d="M32.5203 120.996C34.3615 121.422 40.5608 119.682 40.5608 119.682C40.5608 119.682 36.0888 115.473 34.2492 115.047C33.8111 114.945 33.3544 114.92 32.9055 114.975C32.4567 115.03 32.0243 115.163 31.6334 115.368C31.2425 115.572 30.9006 115.844 30.6274 116.166C30.3542 116.489 30.155 116.857 30.0413 117.248C29.9277 117.64 29.9017 118.047 29.9649 118.448C30.0281 118.848 30.1793 119.234 30.4098 119.582C30.6402 119.93 30.9454 120.234 31.3079 120.477C31.6703 120.72 32.0829 120.896 32.5219 120.996L32.5203 120.996Z" fill="#A55EEA"/>
<path d="M32.3582 95.2175C31.5878 96.7701 26.2092 100.025 26.2092 100.025C26.2092 100.025 25.2939 94.2814 26.0623 92.7304C26.2453 92.3614 26.5079 92.0281 26.8351 91.7497C27.1623 91.4713 27.5478 91.2531 27.9694 91.1076C28.3911 90.9622 28.8408 90.8923 29.2927 90.902C29.7447 90.9116 30.19 91.0007 30.6034 91.164C31.0168 91.3273 31.3901 91.5617 31.702 91.8538C32.014 92.1459 32.2584 92.49 32.4213 92.8664C32.5843 93.2428 32.6625 93.6442 32.6517 94.0476C32.6409 94.451 32.5412 94.8486 32.3582 95.2176V95.2175Z" fill="#A55EEA"/>
<path d="M41.6505 107.196C40.3964 108.471 34.1732 110.142 34.1732 110.142C34.1732 110.142 35.2251 104.417 36.4791 103.143C37.0813 102.531 37.9312 102.157 38.842 102.105C39.7527 102.052 40.6496 102.324 41.3354 102.862C42.0211 103.399 42.4396 104.158 42.4987 104.971C42.5578 105.784 42.2527 106.585 41.6505 107.197V107.196Z" fill="#A55EEA"/>
<path d="M48.8947 119.946C47.8929 121.392 42.0815 123.978 42.0815 123.978C42.0815 123.978 42.033 118.177 43.028 116.731C43.2646 116.387 43.5748 116.088 43.9409 115.851C44.3071 115.613 44.722 115.443 45.1619 115.349C45.6019 115.255 46.0583 115.239 46.505 115.302C46.9518 115.366 47.3803 115.507 47.7659 115.718C48.1515 115.929 48.4867 116.206 48.7524 116.533C49.0181 116.86 49.2091 117.23 49.3145 117.623C49.4199 118.016 49.4375 118.423 49.3665 118.822C49.2955 119.221 49.1372 119.603 48.9006 119.948L48.8947 119.946Z" fill="#A55EEA"/>
<path d="M72.4669 140C112.489 140 144.934 138.104 144.934 135.765C144.934 133.425 112.489 131.529 72.4669 131.529C32.4445 131.529 0 133.425 0 135.765C0 138.104 32.4445 140 72.4669 140Z" fill="#E6E6E6"/>
<path opacity="0.1" d="M128.065 38.5261C128.065 38.5261 134.167 36.7814 134.791 38.5261H128.065Z" fill="black"/>
<path d="M74.5047 45.0785C74.5047 45.0785 75.8839 38.6202 80.3237 38.5873L83.5668 44.5469L81.4041 45.8784C81.4041 45.8784 76.7043 46.0116 74.5047 45.0785Z" fill="#D0CDE1"/>
<path opacity="0.502" d="M83.5666 44.5452L81.4038 45.8784C81.4038 45.8784 78.1064 45.9719 75.7323 45.4524C75.3102 45.3644 74.8989 45.2391 74.5045 45.0785C74.5075 45.043 74.516 45.008 74.5297 44.9746C74.5292 44.9665 74.5292 44.9584 74.5297 44.9503C74.7336 44.1397 75.0146 43.3461 75.3695 42.5781C75.5054 42.2889 75.6605 41.9895 75.8273 41.6916C76.4771 40.5749 77.3907 39.4805 78.6399 38.9386C79.1022 38.7357 79.6055 38.618 80.1199 38.5924H80.3178L80.3875 38.724L81.4858 40.7376L83.5666 44.5452Z" fill="black"/>
<path d="M120.416 71.3806C120.416 71.3806 125.071 70.9812 125.488 71.2802C125.905 71.5792 128.547 73.112 130.112 72.1458C131.677 71.1796 130.634 67.8173 130.634 67.6839C130.634 67.5504 130.486 62.7909 130.486 62.7909L127.687 59.4284L124.183 53.5416L117.021 52.9096L117.215 62.2595L117.179 67.0539L120.416 71.3806Z" fill="#D0CDE1"/>
<path opacity="0.503" d="M120.416 71.3806C120.416 71.3806 125.071 70.9812 125.488 71.2802C125.905 71.5792 128.547 73.112 130.112 72.1458C131.677 71.1796 130.634 67.8173 130.634 67.6839C130.634 67.5504 130.486 62.7909 130.486 62.7909L127.687 59.4284L124.183 53.5416L117.021 52.9096L117.215 62.2595L117.179 67.0539L120.416 71.3806Z" fill="black"/>
<path d="M79.3889 38.4212C79.3889 38.4212 79.0184 42.4832 76.1826 42.5489C76.1826 42.5489 75.3797 42.1161 74.2993 41.3957C71.8089 39.7318 67.8558 36.5338 68.9479 33.5593C70.5152 29.2983 78.1225 37.1554 78.1225 37.1554L78.7043 37.7406L79.3889 38.4212Z" fill="#FBBEBE"/>
<path opacity="0.1" d="M79.3887 38.421C79.3887 38.421 79.0182 42.483 76.1824 42.5487C76.1824 42.5487 75.3795 42.1159 74.2991 41.3955L74.0567 41.1185C74.5372 41.3424 75.0669 41.4695 75.6085 41.4907C76.3203 41.5044 77.1214 41.269 77.6354 40.3514C77.9302 39.8286 78.1893 39.2902 78.4113 38.7394C78.5472 38.4169 78.6434 38.082 78.6983 37.7409L79.3887 38.421Z" fill="black"/>
<path d="M78.1589 45.778L77.5207 45.0456L75.3677 42.5783L74.2737 41.3178C74.7538 41.5429 75.2837 41.6706 75.8255 41.6918C76.5373 41.7056 77.3385 41.4701 77.8544 40.5508C78.1494 40.028 78.4085 39.4897 78.6303 38.9388C78.9852 38.0401 78.9775 37.5772 78.854 37.4221C78.7306 37.2671 79.6454 38.0263 80.0857 38.3987L80.1012 38.4125C80.2273 38.5163 80.3086 38.5857 80.3086 38.5857L80.3843 38.7207L81.4647 40.6495L81.4762 40.7309C81.5747 41.3438 81.9393 45.2273 78.1589 45.778Z" fill="#E6E6E6"/>
<path d="M100.5 131.473C100.5 131.473 97.3677 133.305 95.8016 133.032C94.2356 132.758 92.6303 133.499 92.6303 133.499C91.5512 134.552 90.1903 135.342 88.6753 135.797C86.1402 136.562 82.5985 136.263 80.585 135.662C79.6308 135.38 79.5551 135.013 80.0129 134.562C80.523 134.059 81.6927 133.451 83.0466 132.732C85.6185 131.368 88.3786 128.67 88.3786 128.67C88.3786 128.67 88.4154 128.005 88.8635 127.706C89.138 127.496 89.3899 127.264 89.616 127.013C90.0156 126.591 90.3919 126.148 90.3919 126.148L99.6051 126.414C99.6051 126.414 99.7623 127.008 99.8843 127.614C99.987 128.111 100.067 128.617 100.014 128.812C99.9018 129.244 100.276 129.643 100.276 129.643L100.441 131.003L100.5 131.473Z" fill="#2F2E41"/>
<path d="M119.785 133.769C119.675 134.167 119.541 134.882 119.48 135.218C119.46 135.333 119.449 135.402 119.449 135.402C119.449 135.402 118.702 136.867 114.563 137.4C110.424 137.933 110.424 136.167 110.424 136.167C110.424 136.167 110.44 135.977 110.467 135.691C110.539 134.912 110.688 133.422 110.797 133.104C110.946 132.672 110.686 130.774 110.686 130.774L110.641 128.79L110.61 127.404L117.474 126.771C117.518 127.229 117.591 127.685 117.695 128.135C117.738 128.383 117.84 128.619 117.996 128.828C118.368 129.196 118.593 130.826 118.593 130.826C118.593 130.826 119.931 133.236 119.785 133.769Z" fill="#2F2E41"/>
<path opacity="0.1" d="M99.6124 126.412C99.6124 126.412 99.7694 127.006 99.8916 127.612C98.8967 127.776 94.5459 128.448 93.4579 127.978C92.2282 127.444 89.5786 127.145 89.5786 127.145L89.6231 127.01C90.0227 126.587 90.399 126.144 90.399 126.144L99.6124 126.412Z" fill="black"/>
<path opacity="0.1" d="M117.691 128.142C115.945 127.879 112.139 128.516 110.638 128.79L110.607 127.404L117.47 126.771C117.513 127.231 117.587 127.689 117.691 128.142Z" fill="black"/>
<path d="M121.572 77.6726L121.423 82.3666C121.423 82.3666 121.617 89.5244 121.05 90.6567C120.484 91.7891 120.49 96.3496 120.49 96.3496C120.49 96.3496 120.864 98.5139 120.453 98.9779C120.042 99.442 120.34 101.177 120.647 102.076C120.953 102.974 120.682 105.206 120.682 105.206L120.608 117.79C120.608 117.79 120.199 121.052 119.675 121.519C119.525 121.658 119.418 121.829 119.366 122.016C119.314 122.203 119.318 122.399 119.379 122.584C119.379 122.584 118.931 124.447 119.043 124.781C119.155 125.115 119.379 125.879 118.521 126.244C117.664 126.61 117.885 127.776 117.885 127.776C115.835 127.344 110.018 128.511 110.018 128.511C110.018 128.511 108.854 126.379 108.375 124.947C107.896 123.515 109.085 122.617 109.867 122.523C110.648 122.43 109.308 121.19 109.308 121.19C109.308 121.19 109.457 121.017 109.084 119.826C108.711 118.634 109.158 115.563 109.278 114.765C109.399 113.967 109.949 110.104 109.949 110.104C109.949 110.104 109.653 105.211 109.876 105.01C110.099 104.809 110.846 102.879 110.473 102.24C110.101 101.601 109.503 97.4453 109.503 97.2185C109.503 96.9918 109.019 91.5913 109.019 91.5913C109.019 91.5913 108.573 87.8289 108.683 87.0308C108.793 86.2327 108.384 83.2702 108.384 83.2702C108.384 80.8045 106.782 78.1417 106.782 78.1417L106.742 78.237L103.275 86.3747C103.275 86.3747 102.717 88.8369 102.23 90.2357C101.925 91.1855 101.682 92.1504 101.503 93.1255L101.47 93.2987C101.456 93.3731 101.445 93.4372 101.437 93.4856L101.414 93.6207C101.414 93.6207 101.674 95.385 101.264 95.9513C100.855 96.5175 100.39 98.2143 100.39 98.6869C100.39 99.1595 100.425 100.953 100.425 100.953C100.425 100.953 100.576 104.515 100.165 104.915C99.7537 105.315 99.9709 105.647 99.9709 105.647C99.9709 105.647 100.644 108.343 100.345 109.042C100.047 109.742 100.272 111.371 100.272 111.371C100.272 111.371 99.6801 116.52 99.6142 116.79C99.5483 117.06 99.1293 119.121 99.5754 119.287C100.021 119.453 100.881 120.452 100.881 120.452C100.881 120.452 101.075 124.814 100.398 125.146C99.7206 125.479 100.097 127.177 100.097 127.177C100.097 127.177 94.6914 128.11 93.4597 127.577C92.228 127.043 89.5804 126.744 89.5804 126.744L89.9509 125.65C89.9306 125.688 89.6833 126.043 89.5068 124.68C89.3127 123.248 90.8877 123.948 90.8877 123.948C90.8877 123.948 92.1174 124.214 90.1391 122.483C88.1608 120.751 89.1323 118.987 89.2442 118.987C89.3561 118.987 89.6166 116.425 89.6166 116.425C89.6166 116.425 89.9522 114.892 89.6902 113.694C89.4283 112.496 89.2072 108.766 89.2072 108.766C89.2072 108.766 89.4012 105.937 89.0579 104.905C88.7146 103.873 89.2816 102.009 89.3935 101.574C89.5053 101.139 89.0579 97.1806 89.0579 97.1806C89.0579 97.1806 89.4323 95.3175 89.2072 93.9531C88.982 92.5888 89.4321 87.5607 89.4321 87.5607L90.1033 81.7673C90.1033 81.7673 90.5863 79.9699 90.5125 79.2377C90.4386 78.5055 91.0712 75.948 91.0712 75.948C91.0712 75.948 90.9975 75.0149 91.3699 74.3504C91.7423 73.6859 91.8936 71.4883 91.8936 71.4883L95.4742 64.1625L97.2198 57.7042L120.903 57.5045C120.903 57.5045 120.99 58.0637 121.132 59.0818C121.273 60.0999 121.479 61.6079 121.713 63.4675C121.919 65.1574 122.144 67.145 122.364 69.3545C123.063 76.4068 121.572 77.6726 121.572 77.6726Z" fill="#2F2E41"/>
<path d="M119.372 19.3771L113.85 24.639C113.85 24.639 106.767 22.1076 107.511 21.242C107.8 20.9061 107.754 19.8567 107.587 18.6821C107.325 16.8399 106.767 14.7154 106.767 14.7154C106.767 14.7154 119.147 12.918 118.102 14.7811C117.714 15.4634 117.788 16.258 118.024 16.9922C118.327 17.8466 118.782 18.6517 119.372 19.3763V19.3771Z" fill="#FBBEBE"/>
<path opacity="0.1" d="M118.102 14.7818C117.714 15.4641 117.539 15.5298 117.778 16.264C116.158 17.8223 114.093 19.5105 111.54 19.5105C110.168 19.5124 108.815 19.229 107.587 18.6828C107.325 16.8406 106.767 14.7161 106.767 14.7161C106.767 14.7161 119.147 12.9188 118.102 14.7818Z" fill="black"/>
<path d="M120.416 11.3867C120.416 13.4884 119.481 15.5041 117.816 16.9903C116.151 18.4764 113.893 19.3114 111.538 19.3114C109.184 19.3114 106.926 18.4764 105.261 16.9903C103.596 15.5041 102.661 13.4884 102.661 11.3867C102.661 11.3486 102.661 11.3104 102.661 11.2725C102.678 9.17116 103.629 7.16192 105.306 5.68677C106.982 4.21161 109.246 3.39139 111.6 3.40653C113.954 3.42168 116.205 4.27095 117.858 5.76751C119.51 7.26408 120.429 9.28535 120.412 11.3867H120.416Z" fill="#FBBEBE"/>
<path opacity="0.1" d="M121.702 63.6602C120.527 63.6689 116.61 63.6983 112.234 63.7605H112.182L110.736 63.7823H110.691C105.503 63.8568 100.39 62.9512 98.3376 63.1244C93.9734 63.4897 99.9036 59.5282 99.9036 59.5282C103.155 60.2329 106.5 60.5346 109.844 60.4251L111.099 60.3679C115.065 60.1671 119.051 59.8347 121.131 59.2772C121.275 60.3047 121.477 61.8076 121.702 63.6602Z" fill="black"/>
<path d="M121.702 63.461C120.527 63.461 116.61 63.4991 112.234 63.5598H112.182L110.735 63.5823H110.69C105.502 63.6567 100.389 62.7511 98.3368 62.9225C93.9726 63.2878 99.9028 59.3278 99.9028 59.3278C103.155 60.0314 106.5 60.3332 109.843 60.2247L111.098 60.1658C115.064 59.9661 119.051 59.6326 121.13 59.0751C121.275 60.1038 121.477 61.6014 121.702 63.461Z" fill="#7C5C5C"/>
<path opacity="0.1" d="M109.152 21.5744L102.29 24.4382L96.9949 60.9921C96.9949 60.9921 100.127 59.7281 101.917 60.5264C103.706 61.3247 109.225 60.5939 109.225 60.5939C109.225 60.5939 113.254 60.3931 113.851 60.7936C114.448 61.1941 121.458 59.1297 121.458 59.1297C121.458 59.1297 122.726 56.5984 121.756 56.2002C120.787 55.8021 122.055 51.8717 122.055 51.8717L121.458 25.5037L120.265 22.1087L117.058 20.3761L113.773 22.7067L112.221 22.9064L109.152 21.5744Z" fill="black"/>
<path d="M109.152 21.1744L102.29 24.0382L96.9949 60.5954C96.9949 60.5954 100.127 59.3298 101.917 60.1297C103.706 60.9296 109.225 60.1954 109.225 60.1954C109.225 60.1954 113.254 59.9957 113.851 60.3952C114.448 60.7946 121.458 58.7312 121.458 58.7312C121.458 58.7312 122.726 56.2017 121.756 55.8017C120.787 55.4018 122.055 51.4732 122.055 51.4732L121.458 25.1017L120.265 21.7067L117.058 19.9744L113.773 22.3066L112.221 22.5039L109.152 21.1744Z" fill="#E6E6E6"/>
<path opacity="0.1" d="M109.04 22.8728C109.04 22.8728 111.016 24.9695 110.98 25.4024C110.943 25.8352 110.869 26.8671 110.869 26.8671L109.376 29.5648C109.376 29.5648 108.555 32.9273 108.555 33.6268C108.555 34.3263 107.25 40.3794 107.25 40.3794L105.684 49.7014L103.707 61.9198L105.721 65.0156L108.108 63.2183L111.278 41.4438L111.949 37.1498C111.949 37.1498 112.657 29.4259 112.657 28.6276C112.657 27.8293 112.248 25.731 112.248 25.731C112.248 25.731 112.733 23.7328 114.746 23.2671C116.759 22.8015 114.597 23.1667 114.597 23.1667L113.433 22.334L112.426 22.7011C112.426 22.7011 109.637 21.9413 109.04 22.8728Z" fill="black"/>
<path d="M108.817 22.6771C108.817 22.6771 110.793 24.7738 110.756 25.2067C110.72 25.6395 110.644 26.6714 110.644 26.6714L109.152 29.3691C109.152 29.3691 108.342 32.7278 108.342 33.4258C108.342 34.1239 107.036 40.1784 107.036 40.1784L105.459 49.5143L103.492 61.7245L105.508 64.8221L107.884 63.0197L111.057 41.2503L111.728 36.9563C111.728 36.9563 112.436 29.2324 112.436 28.4325C112.436 27.6325 112.027 25.5358 112.027 25.5358C112.027 25.5358 112.511 23.5388 114.525 23.072C116.538 22.6052 114.376 22.9732 114.376 22.9732L113.212 22.1405L112.221 22.5036C112.221 22.5036 109.414 21.741 108.817 22.6771Z" fill="#2F2E41"/>
<path opacity="0.1" d="M107.512 19.1779C107.512 19.1779 107.213 19.3776 107.139 20.7086C107.065 22.0395 106.021 25.0371 106.021 25.0371C106.021 25.0371 109.9 22.639 111.839 22.9057L107.512 19.1779Z" fill="black"/>
<path d="M107.512 18.778C107.512 18.778 107.213 18.9777 107.139 20.3102C107.065 21.6428 106.021 24.6388 106.021 24.6388C106.021 24.6388 109.9 22.2423 111.839 22.5092L107.512 18.778Z" fill="#E6E6E6"/>
<path opacity="0.1" d="M118.104 18.1115L111.986 22.9059C111.986 22.9059 117.134 25.6364 117.805 26.3029C118.476 26.9693 119.147 19.7763 119.147 19.7763L118.104 18.1115Z" fill="black"/>
<path d="M118.327 17.7132L112.221 22.5041C112.221 22.5041 117.367 25.2328 118.04 25.8991C118.713 26.5654 119.384 19.3733 119.384 19.3733L118.327 17.7132Z" fill="#E6E6E6"/>
<path opacity="0.1" d="M107.735 19.1781C107.735 19.1781 107.063 18.8785 106.429 19.7444C105.795 20.6102 104.602 21.0083 104.602 21.0083C104.602 21.0083 97.8135 21.9745 97.5536 22.7726L94.3843 22.9458C94.3843 22.9458 93.2657 23.0774 93.1526 25.176C93.0395 27.2745 92.4369 27.4684 92.4369 27.4684C92.4369 27.4684 91.1316 29.5323 91.242 30.5971C91.3525 31.6619 90.2353 32.1947 90.2353 32.1947L94.8905 43.0151C94.8905 43.0151 95.0398 47.4771 94.1807 49.108C93.3216 50.7388 91.7198 57.9642 91.7198 57.9642C91.7198 57.9642 92.3928 57.8309 92.3541 58.2291C92.3155 58.6272 91.5337 62.9906 91.5337 62.9906C91.5337 62.9906 91.31 64.722 90.9382 65.3212C90.5664 65.9203 90.5269 69.0508 90.5269 69.0508L89.9296 71.3138C89.9296 71.3138 91.3474 74.1447 93.5101 73.7379C95.6729 73.331 99.6142 65.7907 99.6142 65.7907L102.113 57.634L104.052 49.5776L104.611 44.1184L105.507 32.033L106.812 24.0424C106.812 24.0424 108.258 19.7451 107.735 19.1781Z" fill="black"/>
<path d="M107.512 18.7781C107.512 18.7781 106.84 18.4786 106.206 19.3444C105.572 20.2102 104.379 20.61 104.379 20.61C104.379 20.61 97.5904 21.5744 97.3304 22.3743L94.1591 22.5475C94.1591 22.5475 93.0405 22.6807 92.9295 24.7777C92.8184 26.8746 92.2197 27.0752 92.2197 27.0752C92.2197 27.0752 90.9144 29.139 91.0268 30.2038C91.1393 31.2686 90.0201 31.8015 90.0201 31.8015L94.6753 42.6219C94.6753 42.6219 94.8246 47.0839 93.9673 48.7147C93.1101 50.3456 91.5064 57.5709 91.5064 57.5709C91.5064 57.5709 92.1776 57.4377 92.1407 57.8376C92.1039 58.2376 91.3203 62.5974 91.3203 62.5974C91.3203 62.5974 91.0966 64.3288 90.723 64.9279C90.3494 65.527 90.3138 68.6575 90.3138 68.6575L89.7211 70.9133C89.7211 70.9133 91.1389 73.7442 93.3017 73.3373C95.4644 72.9305 99.3805 65.3814 99.3805 65.3814L101.881 57.2247L103.82 49.1666L104.381 43.7074L105.276 31.6219L106.581 23.6313C106.581 23.6313 108.033 19.3442 107.512 18.7781Z" fill="#2F2E41"/>
<path opacity="0.1" d="M83.5668 44.5453L81.4041 45.8791C81.4041 45.8791 78.1066 45.9726 75.7326 45.4532L74.53 44.9753L74.2875 44.8818L74.5359 44.951C75.783 45.2818 76.7586 45.2747 77.5209 45.0463C80.5816 44.127 80.2364 39.6149 80.1258 38.5933C80.1142 38.4911 80.1055 38.4201 80.1006 38.3994C80.1001 38.3954 80.1001 38.3913 80.1006 38.3872L80.1181 38.4132C80.1598 38.4745 80.2074 38.5325 80.2604 38.5864C80.3031 38.6296 80.3477 38.6746 80.3963 38.7162L81.4767 40.645L81.4883 40.7263L83.5668 44.5453Z" fill="black"/>
<path d="M91.0634 31.5282L90.0199 31.7949L89.8706 33.6996C89.8706 33.6996 88.6389 33.5264 88.3034 34.8319C87.9678 36.1375 87.3723 36.7366 87.3723 36.7366C87.3723 36.7366 85.3202 38.2689 85.2077 39.5657L83.941 40.2583C83.941 40.2583 80.992 39.6454 80.3237 38.588C80.3237 38.588 81.666 47.1777 74.5047 45.0792C74.5047 45.0792 82.5233 48.2097 82.8956 48.6425C83.268 49.0753 85.7314 50.3393 87.9678 49.2745C90.2042 48.2097 90.6911 46.5717 90.6911 46.5717C90.6911 46.5717 92.8538 43.8742 92.9295 43.4741C93.0051 43.074 94.6751 42.6085 94.6751 42.6085L97.8834 35.6821L91.0634 31.5282Z" fill="#2F2E41"/>
<path opacity="0.1" d="M117.247 22.1076L118.327 17.7141C118.327 17.7141 118.812 19.146 119.297 19.4784L120.901 20.576C120.901 20.576 122.505 21.2427 123.064 21.2427C123.622 21.2427 126.644 21.9353 127.017 22.3075C127.389 22.6797 128.883 22.4079 128.883 22.4079C128.883 22.4079 130.112 22.7732 131.195 23.007C132.277 23.2408 132.799 24.8389 132.574 25.4708C132.484 25.7855 132.484 26.1154 132.576 26.4298C132.668 26.7441 132.847 27.0326 133.098 27.2682C133.544 27.6676 133.769 28.9668 133.769 28.9668C134.317 29.1262 134.772 29.4729 135.035 29.9312C135.41 30.6635 135.297 32.2617 135.297 32.2617L129.74 39.2532C129.74 39.2532 129.814 41.9509 129.591 42.5429C129.368 43.135 130.367 53.3298 130.367 53.3298L131.531 70.8414C131.531 70.8414 130.002 72.0066 129.667 72.1401C129.331 72.2735 128.994 65.9466 128.994 65.7148C128.994 65.483 120.38 54.1956 120.38 54.1956C120.38 54.1956 119.216 52.53 119.216 52.1646C119.216 51.7991 118.134 48.435 118.134 48.435L116.492 41.9429L117.247 22.1076Z" fill="black"/>
<path d="M135.759 31.8797C135.759 32.1083 135.745 32.261 135.745 32.261L130.193 39.2472C130.193 39.2472 130.27 41.9431 130.045 42.5369C129.915 42.8831 130.2 46.4673 130.464 49.409C130.658 51.5331 130.829 53.3238 130.829 53.3238L131.32 60.7515L131.983 70.8354C131.983 70.8354 130.455 72.0006 130.119 72.134C129.783 72.2675 129.448 65.9406 129.448 65.7071C129.448 65.4737 120.832 54.1896 120.832 54.1896C120.832 54.1896 119.668 52.524 119.668 52.1586C119.668 51.7931 118.588 48.429 118.588 48.429L116.947 41.9362L117.692 22.0958L118.326 17.7023C118.326 17.7023 119.259 19.1341 119.744 19.4649C120.229 19.7957 121.346 20.5644 121.346 20.5644C121.346 20.5644 122.95 21.2311 123.511 21.2311C124.071 21.2311 127.091 21.9237 127.464 22.2958C127.836 22.668 129.33 22.3962 129.33 22.3962C129.33 22.3962 130.559 22.7615 131.64 22.9954C132.72 23.2292 133.244 24.8272 133.021 25.4574C132.93 25.7721 132.93 26.1023 133.021 26.417C133.113 26.7316 133.292 27.0204 133.542 27.2564C133.99 27.6558 134.213 28.9531 134.213 28.9531C134.763 29.1137 135.219 29.4616 135.482 29.921C135.743 30.4375 135.768 31.3609 135.759 31.8797Z" fill="#2F2E41"/>
<path opacity="0.1" d="M90.1692 120.586C90.3632 120.586 98.1877 120.853 98.0382 121.985C97.8887 123.118 90.1692 120.586 90.1692 120.586Z" fill="black"/>
<path opacity="0.1" d="M91.9227 122.484C91.9227 122.484 97.1812 123.249 95.802 123.949C94.4229 124.648 91.9227 122.484 91.9227 122.484Z" fill="black"/>
<path opacity="0.1" d="M111.464 119.854C111.464 119.854 120.193 120.521 118.888 121.385C117.583 122.249 114.487 122.383 114.337 122.423C114.188 122.464 111.464 119.854 111.464 119.854Z" fill="black"/>
<path opacity="0.1" d="M110.421 123.284C110.421 123.284 115.27 124.016 115.417 124.842C115.565 125.668 110.421 123.284 110.421 123.284Z" fill="black"/>
<path opacity="0.1" d="M113.105 103.241C113.105 103.241 117.543 104.172 117.805 104.799L113.105 103.241Z" fill="black"/>
<path opacity="0.1" d="M95.9861 106.104C95.9861 106.104 93.6741 106.704 95.9125 107.902C98.1508 109.1 95.9861 106.104 95.9861 106.104Z" fill="black"/>
<path opacity="0.1" d="M106.243 74.1095C106.505 74.1095 110.57 72.9112 111.986 73.4446C113.402 73.978 115.158 73.9762 115.158 73.9762L106.243 74.1095Z" fill="black"/>
<path opacity="0.1" d="M106.767 77.9099L106.726 78.2388L103.26 86.3765C103.26 86.3765 102.701 88.8385 102.215 90.2375C101.909 91.1873 101.666 92.1522 101.487 93.1273L104.566 76.0884L106.767 77.9099Z" fill="black"/>
<path d="M112.182 63.5598L110.735 63.5823H110.691L109.843 60.2267C110.26 60.2085 110.677 60.1886 111.098 60.166L112.182 63.5598Z" fill="#2F2E41"/>
<path d="M129.777 59.497L128.848 60.1793L125.745 62.4563C125.745 62.4563 117.352 66.4524 115.04 62.6571C113.002 59.3137 122.517 56.9261 124.808 56.4049C125.12 56.3339 125.296 56.2992 125.296 56.2992L129.777 59.497Z" fill="#FBBEBE"/>
<path opacity="0.1" d="M93.936 26.7685C93.936 26.7685 95.5769 27.4334 95.9495 28.3662C96.3221 29.299 93.936 26.7685 93.936 26.7685Z" fill="black"/>
<path opacity="0.1" d="M88.8639 36.7554C88.8639 36.7554 86.4762 39.3525 87.4461 40.3516C88.4161 41.3507 88.8639 36.7554 88.8639 36.7554Z" fill="black"/>
<path opacity="0.1" d="M131.53 28.2333C131.53 28.2333 129.292 28.433 129.218 30.1639L131.53 28.2333Z" fill="black"/>
<path opacity="0.1" d="M110.793 55.5329C111.017 55.3332 116.164 48.5413 117.357 49.1405L110.793 55.5329Z" fill="black"/>
<path opacity="0.1" d="M120.416 11.3865C120.418 12.6914 120.057 13.9763 119.367 15.1264L119.301 15.1161C118.738 15.0104 118.445 14.4235 118.015 14.0598C117.751 13.8352 117.415 13.6901 117.053 13.6448C116.692 13.5994 116.324 13.6562 116.001 13.8071C115.675 13.9818 115.409 14.2342 115.235 14.536C115.06 14.8379 114.983 15.1773 115.012 15.516C114.729 14.4494 114.818 13.3155 114.541 12.247C114.263 11.1786 113.427 10.0984 112.285 10.0793C111.792 10.0793 111.216 10.2427 110.861 9.90612C110.646 9.70641 110.601 9.3867 110.44 9.15286C109.624 7.97278 107.143 8.56936 106.123 9.17356C105.141 9.75452 103.926 10.7458 102.665 11.2652C102.682 9.16388 103.633 7.15464 105.31 5.67949C106.14 4.94907 107.123 4.37175 108.203 3.98051C109.283 3.58927 110.439 3.39176 111.605 3.39925C112.77 3.40675 113.923 3.61911 114.997 4.02421C116.07 4.42931 117.044 5.01921 117.862 5.76024C118.681 6.50126 119.327 7.3789 119.766 8.34303C120.204 9.30717 120.425 10.3389 120.417 11.3794L120.416 11.3865Z" fill="black"/>
<path d="M110.44 8.95923C110.603 9.19996 110.646 9.51495 110.861 9.71248C111.216 10.0415 111.792 9.87352 112.285 9.88568C113.427 9.90383 114.263 10.9851 114.541 12.0534C114.818 13.1216 114.735 14.254 115.012 15.3213C114.983 14.9827 115.06 14.6436 115.235 14.3421C115.41 14.0406 115.676 13.7887 116.003 13.6147C116.326 13.464 116.693 13.4072 117.054 13.4523C117.414 13.4973 117.75 13.6419 118.014 13.8658C118.445 14.2311 118.738 14.8164 119.3 14.9221C119.863 15.0277 120.406 14.5463 120.608 14.0165C120.809 13.4867 120.802 12.9067 120.93 12.3579C121.184 11.319 121.942 10.4697 122.363 9.48191C122.863 8.28009 122.849 6.95614 122.324 5.76285C122.045 5.13777 121.628 4.57514 121.354 3.95006C120.924 3.00128 118.536 1.72353 118.014 0.819589C117.136 -0.693635 117.702 0.249883 116.003 0.819589C115.192 1.09191 114.129 0.123524 113.307 0.36426C112.203 0.679432 111.026 0.442145 109.883 0.300173C108.741 0.1582 107.482 0.144402 106.565 0.819589C105.509 1.59009 105.22 3.03923 104.237 3.88598C103.82 4.24091 103.302 4.46694 102.862 4.79664C102.422 5.12633 102.043 5.61361 102.086 6.14882C102.152 6.84144 102.908 7.4647 102.629 8.10358C102.528 8.28816 102.388 8.45342 102.216 8.59014C101.384 9.36705 100.766 10.3059 100.41 11.3326C102.406 11.8884 104.567 9.9249 106.128 8.99699C107.139 8.37736 109.624 7.78696 110.44 8.95923Z" fill="#2F2E41"/>
<path opacity="0.1" d="M129.776 59.497L128.847 60.1793C128.029 58.9673 124.668 56.5312 124.668 56.5312L124.813 56.4065C125.125 56.3355 125.301 56.3008 125.301 56.3008L129.776 59.497Z" fill="black"/>
<path d="M130.673 58.2634C130.673 58.2634 130.339 59.0045 129.994 59.6486C129.648 60.2928 129.274 60.871 129.255 60.3984C129.218 59.4652 124.893 56.3348 124.893 56.3348L125.474 55.8264L126.155 55.2377L130.673 58.2634Z" fill="#E6E6E6"/>
<path opacity="0.1" d="M130.822 53.3355L131.313 60.7633C130.149 59.1548 126.974 55.0323 124.927 55.1656L129.889 50.0734C130.095 49.8676 130.285 49.6492 130.457 49.4199C130.647 51.5453 130.822 53.3355 130.822 53.3355Z" fill="black"/>
<path opacity="0.1" d="M130.673 58.2634C130.673 58.2634 130.339 59.0045 129.994 59.6486C128.694 58.0575 126.906 56.1772 125.479 55.8257L126.159 55.2369L130.673 58.2634Z" fill="black"/>
<path d="M134.402 31.3344L135.745 32.2659C135.745 32.2659 137.982 32.3006 138.206 33.9645C138.429 35.6284 140.481 36.3885 140.481 36.3885C140.481 36.3885 142.009 37.7529 142.009 38.3856C142.009 39.0183 143.173 40.1517 143.173 40.2503C143.173 40.3489 144.292 42.3817 144.143 42.747C143.994 43.1123 145.336 44.7121 144.919 45.3112C144.581 45.8485 144.282 46.4042 144.023 46.9751C144.023 46.9751 142.277 49.9722 141.375 50.5384C140.473 51.1047 136.378 55.8644 136.378 55.8644C136.378 55.8644 131.978 60.3921 131.978 61.7911C131.978 61.7911 127.686 55.3987 125.152 55.5579L130.112 50.464C130.112 50.464 130.971 49.6328 131.008 49.1325C131.045 48.6321 133.393 46.3366 134.513 46.2358C134.513 46.2358 134.707 44.8715 134.214 44.8379C133.721 44.8043 133.319 43.7384 133.319 43.7384C133.319 43.7384 130.037 40.2755 130 38.0784C129.963 35.8813 134.402 31.3344 134.402 31.3344Z" fill="#2F2E41"/>
<path opacity="0.1" d="M136.379 34.4924C136.379 34.4924 133.245 36.5563 133.918 37.2211C134.592 37.886 136.379 34.4924 136.379 34.4924Z" fill="black"/>
<path opacity="0.1" d="M100.5 131.473C100.5 131.473 97.3677 133.305 95.8016 133.032C94.2356 132.758 92.6303 133.499 92.6303 133.499C91.5512 134.552 90.1903 135.342 88.6753 135.797C86.1402 136.562 82.5985 136.263 80.585 135.662C79.6308 135.38 79.5551 135.013 80.0129 134.562C82.2027 134.952 87.0965 135.726 88.4154 135.163C90.1301 134.431 92.5915 132.833 92.5915 132.833C92.5915 132.833 95.8016 132.433 96.2476 132.433C96.5657 132.433 99.0427 131.521 100.441 130.996L100.5 131.473Z" fill="black"/>
<path opacity="0.1" d="M95.4839 34.0925C95.4839 34.0925 95.4839 41.6831 94.7567 42.4327C94.0294 43.1823 95.4839 34.0925 95.4839 34.0925Z" fill="black"/>
<path opacity="0.1" d="M129.105 36.539L130.186 39.2514C130.186 39.2514 130.616 36.5893 129.105 36.539Z" fill="black"/>
<g opacity="0.1">
<path opacity="0.1" d="M102.734 7.44067C103.008 6.81559 102.292 6.2045 102.199 5.53603C102.104 5.72492 102.062 5.93196 102.079 6.13859C102.127 6.6424 102.544 7.11515 102.661 7.58083C102.69 7.53632 102.715 7.48932 102.734 7.44049V7.44067Z" fill="black"/>
<path opacity="0.1" d="M115.113 14.6105C114.846 13.5595 114.919 12.4478 114.652 11.3986C114.384 10.3495 113.54 9.24818 112.398 9.23094C111.905 9.23094 111.329 9.39197 110.972 9.05774C110.759 8.86039 110.714 8.53832 110.553 8.30448C109.737 7.12441 107.256 7.72352 106.233 8.327C104.707 9.23257 102.612 11.1251 100.657 10.6955C100.562 10.8981 100.474 11.1024 100.403 11.3128C102.399 11.8685 104.56 9.90503 106.121 8.97713C107.139 8.37293 109.624 7.7651 110.441 8.95462C110.603 9.19535 110.646 9.51034 110.862 9.70787C111.217 10.0368 111.793 9.8689 112.285 9.88107C113.428 9.89922 114.264 10.9805 114.541 12.0488C114.818 13.117 114.735 14.2494 115.012 15.3167C114.993 15.0781 115.028 14.8385 115.114 14.6119L115.113 14.6105Z" fill="black"/>
<path opacity="0.1" d="M120.72 13.3603C120.526 13.8901 119.985 14.375 119.411 14.2659C118.837 14.1568 118.556 13.5733 118.127 13.2096C117.863 12.9853 117.527 12.8405 117.166 12.7954C116.805 12.7504 116.437 12.8074 116.114 12.9585C115.803 13.1244 115.547 13.3615 115.373 13.6452C115.199 13.9289 115.113 14.2489 115.124 14.5722C115.274 14.1647 115.587 13.8211 116.003 13.6078C116.326 13.4571 116.693 13.4003 117.054 13.4453C117.415 13.4903 117.75 13.6349 118.015 13.8589C118.445 14.2241 118.738 14.8095 119.3 14.9151C119.863 15.0208 120.406 14.5393 120.608 14.0095C120.715 13.6985 120.784 13.3781 120.813 13.0539C120.789 13.1576 120.758 13.2599 120.72 13.3603Z" fill="black"/>
<path opacity="0.1" d="M122.474 8.82519C122.055 9.8121 121.294 10.6639 121.042 11.7028C120.992 11.9123 120.963 12.1271 120.934 12.3416C121.19 11.3028 121.944 10.4579 122.363 9.47442C122.55 9.02916 122.666 8.56298 122.709 8.08919C122.652 8.3394 122.573 8.58537 122.474 8.82501L122.474 8.82519Z" fill="black"/>
</g>
<path d="M71.696 33.6496L71.6817 33.656C71.6435 33.6732 71.6282 33.7146 71.6474 33.7487L72.2081 34.7418C72.2273 34.7759 72.2738 34.7895 72.3119 34.7724L72.3262 34.7659C72.3643 34.7488 72.3797 34.7073 72.3605 34.6733L71.7998 33.6801C71.7806 33.6461 71.7341 33.6324 71.696 33.6496Z" fill="#3A3768"/>
<path d="M70.1064 31.7435L65.845 33.6604C65.6203 33.7615 65.53 34.006 65.6432 34.2065L70.4318 42.6892C70.545 42.8898 70.819 42.9704 71.0436 42.8694L75.305 40.9525C75.5297 40.8514 75.62 40.6069 75.5068 40.4063L70.7182 31.9237C70.605 31.7231 70.3311 31.6424 70.1064 31.7435Z" fill="#3A3768"/>
<path d="M69.5335 32.2953C69.5087 32.3052 69.4866 32.3196 69.4684 32.3375C69.4503 32.3555 69.4366 32.3767 69.4281 32.3997C69.4197 32.4227 69.4168 32.447 69.4196 32.4711C69.4223 32.4952 69.4307 32.5185 69.4442 32.5395L69.4645 32.5724C69.478 32.5935 69.4862 32.6168 69.4889 32.641C69.4915 32.6651 69.4885 32.6895 69.4799 32.7125C69.4713 32.7356 69.4574 32.7567 69.439 32.7746C69.4207 32.7926 69.3983 32.8068 69.3734 32.8165L67.2225 33.7844C67.1989 33.7964 67.1728 33.8039 67.1459 33.8064C67.1189 33.8088 67.0917 33.8062 67.0659 33.7987C67.0401 33.7912 67.0164 33.779 66.9962 33.7628C66.9761 33.7466 66.96 33.7268 66.9489 33.7047L66.9286 33.67C66.9175 33.6479 66.9014 33.6281 66.8813 33.6119C66.8611 33.5957 66.8374 33.5835 66.8116 33.576C66.7858 33.5685 66.7586 33.5659 66.7316 33.5683C66.7046 33.5708 66.6786 33.5783 66.655 33.5903L66.2361 33.7773C66.1901 33.7977 66.1492 33.826 66.1156 33.8606C66.0821 33.8952 66.0565 33.9354 66.0404 33.9789C66.0244 34.0224 66.0181 34.0683 66.0221 34.1139C66.026 34.1595 66.0401 34.204 66.0634 34.2448L70.6395 42.353C70.6623 42.394 70.694 42.4306 70.7328 42.4605C70.7716 42.4905 70.8166 42.5133 70.8653 42.5277C70.914 42.542 70.9654 42.5476 71.0165 42.544C71.0677 42.5405 71.1175 42.528 71.1632 42.5072L74.9164 40.8187C74.962 40.7984 75.0027 40.7701 75.0361 40.7357C75.0695 40.7012 75.095 40.6612 75.111 40.6179C75.1271 40.5746 75.1334 40.529 75.1296 40.4835C75.1258 40.4381 75.1121 40.3938 75.089 40.3531L70.5189 32.2436C70.4959 32.203 70.4641 32.1668 70.4254 32.1372C70.3867 32.1075 70.3419 32.085 70.2934 32.0709C70.245 32.0567 70.1939 32.0512 70.143 32.0547C70.0922 32.0582 70.0427 32.0706 69.9972 32.0912L69.5335 32.2953Z" fill="#A55EEA"/>
<path opacity="0.1" d="M45.5127 127.484H38.0958V128.533H45.5127V127.484Z" fill="black"/>
<path d="M62.0558 32.9407V53.5926C62.0563 53.8649 61.9966 54.1345 61.8802 54.3861C61.7637 54.6377 61.5928 54.8664 61.3771 55.0589C61.1615 55.2514 60.9054 55.404 60.6235 55.5079C60.3416 55.6119 60.0395 55.6652 59.7346 55.6647H57.2415V30.8705H59.7344C60.0391 30.87 60.341 30.9232 60.6227 31.027C60.9044 31.1308 61.1603 31.2832 61.376 31.4755C61.5916 31.6677 61.7626 31.8961 61.8792 32.1474C61.9958 32.3987 62.0557 32.6681 62.0556 32.9402L62.0558 32.9407Z" fill="#D0CDE1"/>
<path opacity="0.2" d="M60.1631 33.5173V53.1094C60.0219 53.1302 59.8791 53.1406 59.736 53.1404H59.3793V33.4863H59.7368C59.8796 33.4861 60.0222 33.4965 60.1631 33.5173Z" fill="black"/>
<path d="M51.05 62.9516H42.0621V127.282H51.05V62.9516Z" fill="#D0CDE1"/>
<path d="M35.7494 126.273H56.3281C58.5875 126.273 60.7544 127.074 62.352 128.5C63.9496 129.927 64.8472 131.861 64.8472 133.878V135.047H27.2303V133.878C27.2303 131.861 28.1279 129.927 29.7255 128.5C31.3231 127.074 33.49 126.273 35.7494 126.273Z" fill="#D0CDE1"/>
<path opacity="0.1" d="M51.05 71.808H42.0621V79.5246H51.05V71.808Z" fill="black"/>
<path opacity="0.1" d="M51.05 71.2829H42.0621V78.9995H51.05V71.2829Z" fill="black"/>
<path d="M51.9855 71.5445H41.2291V79.2612H51.9855V71.5445Z" fill="#D0CDE1"/>
<path d="M55.8915 58.1049V61.3074C55.8915 61.702 55.8044 62.0927 55.6352 62.4572C55.4661 62.8218 55.2181 63.153 54.9056 63.432C54.593 63.711 54.222 63.9323 53.8136 64.0833C53.4052 64.2343 52.9675 64.3119 52.5255 64.3119H40.5949C39.7023 64.3119 38.8462 63.9954 38.215 63.4319C37.5838 62.8685 37.2292 62.1043 37.2292 61.3074V58.1049C37.2298 57.3086 37.5847 56.5451 38.2159 55.9823C38.8471 55.4196 39.7029 55.1038 40.5949 55.1042H52.5255C53.4176 55.1038 54.2733 55.4196 54.9045 55.9823C55.5357 56.5451 55.8907 57.3086 55.8913 58.1049H55.8915Z" fill="#D0CDE1"/>
<path opacity="0.1" d="M55.8915 58.1049V58.4317C54.7958 59.7137 53.3836 60.7528 51.7646 61.4681C50.1456 62.1833 48.3636 62.5554 46.5572 62.5554C44.7508 62.5554 42.9687 62.1833 41.3497 61.4681C39.7307 60.7528 38.3185 59.7137 37.2229 58.4317V58.1049C37.2235 57.3086 37.5784 56.5451 38.2096 55.9823C38.8408 55.4196 39.6965 55.1037 40.5886 55.1042H52.5194C52.9616 55.1032 53.3998 55.1801 53.8087 55.3305C54.2176 55.4808 54.5893 55.7016 54.9025 55.9803C55.2157 56.2591 55.4643 56.5902 55.634 56.9547C55.8037 57.3193 55.8912 57.7101 55.8915 58.1049Z" fill="black"/>
<path d="M35.7661 28.2658H57.3483C57.5998 28.2658 57.8409 28.355 58.0187 28.5137C58.1966 28.6724 58.2964 28.8877 58.2964 29.1122V53.2152C58.2964 55.624 57.2245 57.9342 55.3164 59.6375C53.4083 61.3408 50.8203 62.2976 48.1219 62.2976H44.9925C42.294 62.2976 39.7061 61.3408 37.798 59.6375C35.8899 57.9342 34.8179 55.624 34.8179 53.2152V29.1122C34.8179 28.8877 34.9178 28.6724 35.0956 28.5137C35.2734 28.355 35.5146 28.2658 35.7661 28.2658Z" fill="#D0CDE1"/>
<path d="M39.6689 18.7631H53.2752C55.2703 18.7631 56.8878 19.8863 56.8878 21.2721V28.4604C56.8878 28.9599 56.3049 29.3645 55.5862 29.3645H37.3581C36.6392 29.3645 36.0565 28.9597 36.0565 28.4604V21.271C36.0565 19.8854 37.674 18.762 39.6692 18.762L39.6689 18.7631Z" fill="#D0CDE1"/>
<path opacity="0.2" d="M53.6256 24.2673H38.9925V25.2314H53.6256V24.2673Z" fill="black"/>
<path opacity="0.1" d="M55.8892 31.36H37.2249V43.4507H55.8892V31.36Z" fill="black"/>
<path d="M55.8892 31.0965H37.2249V43.1872H55.8892V31.0965Z" fill="#A55EEA"/>
<g opacity="0.1">
<path opacity="0.1" d="M41.3678 45.2593H37.4903C37.4016 45.2593 37.3297 45.3235 37.3297 45.4027V46.4537C37.3297 46.5329 37.4016 46.5971 37.4903 46.5971H41.3678C41.4565 46.5971 41.5285 46.5329 41.5285 46.4537V45.4027C41.5285 45.3235 41.4565 45.2593 41.3678 45.2593Z" fill="black"/>
<path opacity="0.1" d="M46.1192 45.2593H42.2417C42.153 45.2593 42.0811 45.3235 42.0811 45.4027V46.4537C42.0811 46.5329 42.153 46.5971 42.2417 46.5971H46.1192C46.2079 46.5971 46.2799 46.5329 46.2799 46.4537V45.4027C46.2799 45.3235 46.2079 45.2593 46.1192 45.2593Z" fill="black"/>
<path opacity="0.1" d="M50.8706 45.2593H46.9931C46.9044 45.2593 46.8324 45.3235 46.8324 45.4027V46.4537C46.8324 46.5329 46.9044 46.5971 46.9931 46.5971H50.8706C50.9593 46.5971 51.0313 46.5329 51.0313 46.4537V45.4027C51.0313 45.3235 50.9593 45.2593 50.8706 45.2593Z" fill="black"/>
<path opacity="0.1" d="M55.624 45.2593H51.7466C51.6578 45.2593 51.5859 45.3235 51.5859 45.4027V46.4537C51.5859 46.5329 51.6578 46.5971 51.7466 46.5971H55.624C55.7128 46.5971 55.7847 46.5329 55.7847 46.4537V45.4027C55.7847 45.3235 55.7128 45.2593 55.624 45.2593Z" fill="black"/>
<path opacity="0.1" d="M41.3678 47.8789H37.4903C37.4016 47.8789 37.3297 47.9431 37.3297 48.0223V49.0733C37.3297 49.1525 37.4016 49.2167 37.4903 49.2167H41.3678C41.4565 49.2167 41.5285 49.1525 41.5285 49.0733V48.0223C41.5285 47.9431 41.4565 47.8789 41.3678 47.8789Z" fill="black"/>
<path opacity="0.1" d="M46.1192 47.8789H42.2417C42.153 47.8789 42.0811 47.9431 42.0811 48.0223V49.0733C42.0811 49.1525 42.153 49.2167 42.2417 49.2167H46.1192C46.2079 49.2167 46.2799 49.1525 46.2799 49.0733V48.0223C46.2799 47.9431 46.2079 47.8789 46.1192 47.8789Z" fill="black"/>
<path opacity="0.1" d="M50.8706 47.8789H46.9931C46.9044 47.8789 46.8324 47.9431 46.8324 48.0223V49.0733C46.8324 49.1525 46.9044 49.2167 46.9931 49.2167H50.8706C50.9593 49.2167 51.0313 49.1525 51.0313 49.0733V48.0223C51.0313 47.9431 50.9593 47.8789 50.8706 47.8789Z" fill="black"/>
<path opacity="0.1" d="M41.3678 50.4329H37.4903C37.4016 50.4329 37.3297 50.4972 37.3297 50.5764V51.6273C37.3297 51.7066 37.4016 51.7708 37.4903 51.7708H41.3678C41.4565 51.7708 41.5285 51.7066 41.5285 51.6273V50.5764C41.5285 50.4972 41.4565 50.4329 41.3678 50.4329Z" fill="black"/>
<path opacity="0.1" d="M46.1192 50.4329H42.2417C42.153 50.4329 42.0811 50.4972 42.0811 50.5764V51.6273C42.0811 51.7066 42.153 51.7708 42.2417 51.7708H46.1192C46.2079 51.7708 46.2799 51.7066 46.2799 51.6273V50.5764C46.2799 50.4972 46.2079 50.4329 46.1192 50.4329Z" fill="black"/>
<path opacity="0.1" d="M50.8706 50.4329H46.9931C46.9044 50.4329 46.8324 50.4972 46.8324 50.5764V51.6273C46.8324 51.7066 46.9044 51.7708 46.9931 51.7708H50.8706C50.9593 51.7708 51.0313 51.7066 51.0313 51.6273V50.5764C51.0313 50.4972 50.9593 50.4329 50.8706 50.4329Z" fill="black"/>
<path opacity="0.1" d="M41.3678 53.2506H37.4903C37.4016 53.2506 37.3297 53.3148 37.3297 53.394V54.445C37.3297 54.5242 37.4016 54.5884 37.4903 54.5884H41.3678C41.4565 54.5884 41.5285 54.5242 41.5285 54.445V53.394C41.5285 53.3148 41.4565 53.2506 41.3678 53.2506Z" fill="black"/>
<path opacity="0.1" d="M46.1192 53.2506H42.2417C42.153 53.2506 42.0811 53.3148 42.0811 53.394V54.445C42.0811 54.5242 42.153 54.5884 42.2417 54.5884H46.1192C46.2079 54.5884 46.2799 54.5242 46.2799 54.445V53.394C46.2799 53.3148 46.2079 53.2506 46.1192 53.2506Z" fill="black"/>
<path opacity="0.1" d="M50.8706 53.2506H46.9931C46.9044 53.2506 46.8324 53.3148 46.8324 53.394V54.445C46.8324 54.5242 46.9044 54.5884 46.9931 54.5884H50.8706C50.9593 54.5884 51.0313 54.5242 51.0313 54.445V53.394C51.0313 53.3148 50.9593 53.2506 50.8706 53.2506Z" fill="black"/>
<path opacity="0.1" d="M55.624 47.8789H51.7466C51.6578 47.8789 51.5859 47.9431 51.5859 48.0223V49.0733C51.5859 49.1525 51.6578 49.2167 51.7466 49.2167H55.624C55.7128 49.2167 55.7847 49.1525 55.7847 49.0733V48.0223C55.7847 47.9431 55.7128 47.8789 55.624 47.8789Z" fill="black"/>
<path opacity="0.1" d="M55.1642 50.2892H52.244C52.0228 50.2892 51.8434 50.4493 51.8434 50.6468V54.6997C51.8434 54.8973 52.0228 55.0574 52.244 55.0574H55.1642C55.3855 55.0574 55.5648 54.8973 55.5648 54.6997V50.6468C55.5648 50.4493 55.3855 50.2892 55.1642 50.2892Z" fill="black"/>
</g>
<path d="M41.3678 44.9958H37.4903C37.4016 44.9958 37.3297 45.0601 37.3297 45.1393V46.1903C37.3297 46.2695 37.4016 46.3337 37.4903 46.3337H41.3678C41.4565 46.3337 41.5285 46.2695 41.5285 46.1903V45.1393C41.5285 45.0601 41.4565 44.9958 41.3678 44.9958Z" fill="white"/>
<path d="M46.1192 44.9958H42.2417C42.153 44.9958 42.0811 45.0601 42.0811 45.1393V46.1903C42.0811 46.2695 42.153 46.3337 42.2417 46.3337H46.1192C46.2079 46.3337 46.2799 46.2695 46.2799 46.1903V45.1393C46.2799 45.0601 46.2079 44.9958 46.1192 44.9958Z" fill="white"/>
<path d="M50.8706 44.9958H46.9931C46.9044 44.9958 46.8324 45.0601 46.8324 45.1393V46.1903C46.8324 46.2695 46.9044 46.3337 46.9931 46.3337H50.8706C50.9593 46.3337 51.0313 46.2695 51.0313 46.1903V45.1393C51.0313 45.0601 50.9593 44.9958 50.8706 44.9958Z" fill="white"/>
<path d="M55.624 44.9958H51.7466C51.6578 44.9958 51.5859 45.0601 51.5859 45.1393V46.1903C51.5859 46.2695 51.6578 46.3337 51.7466 46.3337H55.624C55.7128 46.3337 55.7847 46.2695 55.7847 46.1903V45.1393C55.7847 45.0601 55.7128 44.9958 55.624 44.9958Z" fill="#2F2E41"/>
<path d="M41.3678 47.6154H37.4903C37.4016 47.6154 37.3297 47.6797 37.3297 47.7589V48.8099C37.3297 48.8891 37.4016 48.9533 37.4903 48.9533H41.3678C41.4565 48.9533 41.5285 48.8891 41.5285 48.8099V47.7589C41.5285 47.6797 41.4565 47.6154 41.3678 47.6154Z" fill="white"/>
<path d="M46.1192 47.6154H42.2417C42.153 47.6154 42.0811 47.6797 42.0811 47.7589V48.8099C42.0811 48.8891 42.153 48.9533 42.2417 48.9533H46.1192C46.2079 48.9533 46.2799 48.8891 46.2799 48.8099V47.7589C46.2799 47.6797 46.2079 47.6154 46.1192 47.6154Z" fill="white"/>
<path d="M50.8706 47.6154H46.9931C46.9044 47.6154 46.8324 47.6797 46.8324 47.7589V48.8099C46.8324 48.8891 46.9044 48.9533 46.9931 48.9533H50.8706C50.9593 48.9533 51.0313 48.8891 51.0313 48.8099V47.7589C51.0313 47.6797 50.9593 47.6154 50.8706 47.6154Z" fill="white"/>
<path d="M41.3678 50.1695H37.4903C37.4016 50.1695 37.3297 50.2337 37.3297 50.3129V51.3639C37.3297 51.4431 37.4016 51.5074 37.4903 51.5074H41.3678C41.4565 51.5074 41.5285 51.4431 41.5285 51.3639V50.3129C41.5285 50.2337 41.4565 50.1695 41.3678 50.1695Z" fill="white"/>
<path d="M46.1192 50.1695H42.2417C42.153 50.1695 42.0811 50.2337 42.0811 50.3129V51.3639C42.0811 51.4431 42.153 51.5074 42.2417 51.5074H46.1192C46.2079 51.5074 46.2799 51.4431 46.2799 51.3639V50.3129C46.2799 50.2337 46.2079 50.1695 46.1192 50.1695Z" fill="white"/>
<path d="M50.8706 50.1695H46.9931C46.9044 50.1695 46.8324 50.2337 46.8324 50.3129V51.3639C46.8324 51.4431 46.9044 51.5074 46.9931 51.5074H50.8706C50.9593 51.5074 51.0313 51.4431 51.0313 51.3639V50.3129C51.0313 50.2337 50.9593 50.1695 50.8706 50.1695Z" fill="white"/>
<path d="M41.3678 52.9872H37.4903C37.4016 52.9872 37.3297 53.0514 37.3297 53.1306V54.1816C37.3297 54.2608 37.4016 54.325 37.4903 54.325H41.3678C41.4565 54.325 41.5285 54.2608 41.5285 54.1816V53.1306C41.5285 53.0514 41.4565 52.9872 41.3678 52.9872Z" fill="white"/>
<path d="M46.1192 52.9872H42.2417C42.153 52.9872 42.0811 53.0514 42.0811 53.1306V54.1816C42.0811 54.2608 42.153 54.325 42.2417 54.325H46.1192C46.2079 54.325 46.2799 54.2608 46.2799 54.1816V53.1306C46.2799 53.0514 46.2079 52.9872 46.1192 52.9872Z" fill="white"/>
<path d="M50.8706 52.9872H46.9931C46.9044 52.9872 46.8324 53.0514 46.8324 53.1306V54.1816C46.8324 54.2608 46.9044 54.325 46.9931 54.325H50.8706C50.9593 54.325 51.0313 54.2608 51.0313 54.1816V53.1306C51.0313 53.0514 50.9593 52.9872 50.8706 52.9872Z" fill="white"/>
<path d="M55.624 47.6154H51.7466C51.6578 47.6154 51.5859 47.6797 51.5859 47.7589V48.8099C51.5859 48.8891 51.6578 48.9533 51.7466 48.9533H55.624C55.7128 48.9533 55.7847 48.8891 55.7847 48.8099V47.7589C55.7847 47.6797 55.7128 47.6154 55.624 47.6154Z" fill="#2F2E41"/>
<path d="M55.1642 50.0275H52.244C52.0228 50.0275 51.8434 50.1877 51.8434 50.3852V54.4381C51.8434 54.6356 52.0228 54.7958 52.244 54.7958H55.1642C55.3855 54.7958 55.5648 54.6356 55.5648 54.4381V50.3852C55.5648 50.1877 55.3855 50.0275 55.1642 50.0275Z" fill="#A55EEA"/>
<path d="M48.5425 41.7187H46.531V41.9336H48.5425V41.7187Z" fill="white"/>
<path d="M51.3597 41.7187H49.3483V41.9336H51.3597V41.7187Z" fill="white"/>
<path d="M54.1772 41.7187H52.1657V41.9336H54.1772V41.7187Z" fill="white"/>
</g>
<defs>
<clipPath id="clip0">
<rect width="145" height="140" fill="white"/>
</clipPath>
</defs>
</svg>
